<svg width="1200" height="675" viewBox="0 0 1200 675" fill="none" xmlns="http://www.w3.org/2000/svg">
<g clip-path="url(#clip0_454_143)">
<rect width="1200" height="675" fill="white"/>
<rect x="-200" y="-569" width="1600" height="1600" fill="white"/>
<g opacity="0.4" filter="url(#filter0_f_454_143)">
<circle cx="600" cy="754.5" r="232.5" fill="white"/>
</g>
<g opacity="0.4">
<g filter="url(#filter1_f_454_143)">
<circle cx="600" cy="1102.5" r="571.5" fill="#2CA868"/>
</g>
<g filter="url(#filter2_f_454_143)">
<circle cx="-97.5" cy="1102.5" r="571.5" fill="#5179FB"/>
</g>
<g filter="url(#filter3_f_454_143)">
<circle cx="1297.5" cy="1102.5" r="571.5" fill="#E07655"/>
</g>
</g>
<path d="M333.012 368.005C336.352 369.015 338.401 372.446 337.383 375.783C336.37 379.109 332.795 380.762 329.467 379.756L298.255 370.329C289.615 367.725 280.926 374.209 280.926 383.273V415.559C280.926 419.332 278.067 422.547 274.293 422.547C271.1 422.547 268.688 419.856 268.688 416.663V383.273C268.688 374.209 259.975 367.725 251.335 370.329L219.222 380.032C215.9 381.036 212.332 379.405 211.298 376.094C210.253 372.744 212.306 369.28 215.666 368.265L246.979 358.809C255.79 356.156 259.412 345.619 254.101 338.079L235.03 311.007C233.021 308.156 233.485 304.217 236.333 302.206C239.178 300.197 243.051 301.078 245.055 303.926L263.793 330.563C269.178 338.177 280.436 338.177 285.797 330.563L304.201 304.43C306.233 301.545 310.168 300.675 313.019 302.755C315.795 304.781 316.218 308.663 314.238 311.473L295.489 338.079C290.202 345.619 293.8 356.156 302.611 358.809L333.012 368.005Z" fill="#0A0B0C"/>
<path d="M280.926 415.559V383.273C280.926 374.209 289.615 367.725 298.255 370.329L329.467 379.756C332.691 380.73 336.146 379.21 337.281 376.09L337.383 375.783C338.369 372.55 336.477 369.23 333.322 368.107L333.012 368.005L302.611 358.809C293.8 356.156 290.202 345.619 295.489 338.079L314.238 311.473C316.156 308.751 315.82 305.023 313.272 302.95L313.019 302.755C310.168 300.675 306.233 301.545 304.201 304.43L285.797 330.563C280.436 338.177 269.178 338.177 263.793 330.563L245.055 303.926C243.051 301.078 239.178 300.197 236.333 302.206L236.074 302.4C233.459 304.462 233.084 308.245 235.03 311.007L254.101 338.079C259.412 345.619 255.79 356.156 246.979 358.809L215.666 368.265L215.355 368.367C212.181 369.496 210.286 372.848 211.298 376.094C212.3 379.302 215.68 380.932 218.909 380.118L219.222 380.032L251.335 370.329C259.975 367.725 268.688 374.209 268.688 383.273V416.663L268.696 416.961C268.836 419.922 271.05 422.383 273.996 422.539L274.293 422.547C277.949 422.547 280.746 419.53 280.917 415.911L280.926 415.559ZM282.402 415.559C282.402 420.046 278.981 424.023 274.294 424.023C270.193 424.023 267.212 420.576 267.212 416.663V383.273C267.212 375.195 259.449 369.426 251.762 371.743L251.761 371.742L219.648 381.446C215.65 382.654 211.194 380.713 209.89 376.534C208.575 372.323 211.174 368.079 215.239 366.851L246.552 357.395C254.394 355.034 257.628 345.65 252.894 338.929L233.823 311.858C231.399 308.418 231.894 303.534 235.482 301C239.066 298.47 243.841 299.635 246.262 303.076L264.998 329.71C269.795 336.494 279.819 336.49 284.589 329.713L302.994 303.58C305.446 300.099 310.297 298.942 313.889 301.563C317.39 304.118 317.834 308.932 315.445 312.323L296.696 338.929C291.984 345.654 295.2 355.036 303.037 357.395L303.038 357.396L333.44 366.592C337.481 367.814 340.075 372.018 338.796 376.214C337.516 380.411 333.051 382.381 329.04 381.17L297.829 371.742C290.145 369.426 282.402 375.192 282.402 383.273V415.559Z" fill="#0A0B0C"/>
<path d="M421.082 402.852C413.228 402.852 406.149 401.044 399.845 397.426C393.644 393.809 388.787 388.849 385.273 382.545C381.863 376.241 380.158 369.162 380.158 361.307C380.158 353.453 381.863 346.374 385.273 340.07C388.787 333.766 393.644 328.857 399.845 325.343C406.149 321.726 413.228 319.918 421.082 319.918C428.936 319.918 435.964 321.726 442.165 325.343C448.365 328.857 453.222 333.766 456.736 340.07C460.25 346.271 462.007 353.35 462.007 361.307C462.007 369.162 460.25 376.241 456.736 382.545C453.222 388.849 448.365 393.809 442.165 397.426C435.964 401.044 428.936 402.852 421.082 402.852ZM421.082 386.42C425.319 386.42 429.04 385.387 432.243 383.32C435.55 381.15 438.082 378.153 439.839 374.329C441.699 370.505 442.63 366.165 442.63 361.307C442.63 356.45 441.699 352.161 439.839 348.441C438.082 344.617 435.55 341.672 432.243 339.605C428.936 337.435 425.216 336.35 421.082 336.35C416.845 336.35 413.073 337.435 409.766 339.605C406.459 341.672 403.927 344.617 402.17 348.441C400.413 352.265 399.535 356.554 399.535 361.307C399.535 366.268 400.413 370.66 402.17 374.484C403.927 378.204 406.407 381.15 409.611 383.32C412.918 385.387 416.742 386.42 421.082 386.42ZM473.476 321.158H492.388V334.024C494.661 329.581 497.762 326.119 501.689 323.638C505.719 321.158 510.421 319.918 515.795 319.918C522.203 319.918 527.525 321.261 531.762 323.948C536.103 326.532 539.203 330.304 541.063 335.265C543.337 330.821 546.799 327.152 551.449 324.258C556.1 321.365 561.474 319.918 567.571 319.918C573.255 319.918 578.267 321.055 582.608 323.328C586.948 325.602 590.255 328.805 592.529 332.939C594.906 337.073 596.094 341.827 596.094 347.201V401.612H577.182V352.316C577.182 347.253 575.839 343.325 573.152 340.535C570.465 337.641 566.796 336.195 562.146 336.195C556.462 336.195 552.018 338.417 548.814 342.86C545.714 347.304 544.164 353.298 544.164 360.842V401.612H525.251V352.316C525.251 347.253 523.908 343.325 521.221 340.535C518.637 337.641 515.02 336.195 510.37 336.195C506.649 336.195 503.394 337.228 500.604 339.295C497.917 341.362 495.85 344.256 494.403 347.976C493.059 351.696 492.388 355.985 492.388 360.842V401.612H473.476V321.158ZM611.199 321.158H630.111V333.869C632.798 329.529 636.415 326.119 640.962 323.638C645.509 321.158 650.522 319.918 655.999 319.918C661.786 319.918 666.85 321.106 671.191 323.483C675.634 325.86 679.096 329.219 681.577 333.559C684.057 337.9 685.297 342.964 685.297 348.751V401.612H666.23V353.247C666.23 348.389 664.783 344.462 661.889 341.465C659.099 338.365 655.327 336.815 650.573 336.815C646.336 336.815 642.667 338.003 639.567 340.38C636.57 342.654 634.245 346.012 632.591 350.456C630.938 354.797 630.111 360.067 630.111 366.268V401.612H611.199V321.158ZM700.328 321.158H719.24V401.612H700.328V321.158ZM700.328 385.645H719.24V401.612H700.328V385.645ZM700.328 321.158H713.039V337.125H700.328V321.158ZM709.629 310.307C706.425 310.307 703.635 309.17 701.258 306.896C698.984 304.519 697.847 301.729 697.847 298.525C697.847 295.322 698.984 292.531 701.258 290.154C703.635 287.778 706.425 286.589 709.629 286.589C712.832 286.589 715.623 287.778 718 290.154C720.377 292.531 721.565 295.322 721.565 298.525C721.565 301.729 720.377 304.519 718 306.896C715.623 309.17 712.832 310.307 709.629 310.307ZM736.195 321.158H751.232V332.164C753.402 328.65 756.812 325.757 761.463 323.483C766.217 321.106 771.28 319.918 776.654 319.918C784.509 319.918 791.278 321.726 796.962 325.343C802.749 328.857 807.141 333.766 810.138 340.07C813.135 346.271 814.634 353.35 814.634 361.307C814.634 369.265 813.083 376.396 809.983 382.7C806.883 389.004 802.387 393.964 796.497 397.581C790.709 401.095 783.888 402.852 776.034 402.852C771.074 402.852 766.32 401.767 761.773 399.597C757.329 397.426 753.815 394.636 751.232 391.226V430.6H736.195V321.158ZM774.639 389.676C779.496 389.676 783.785 388.487 787.506 386.11C791.226 383.733 794.068 380.426 796.032 376.189C798.098 371.952 799.132 366.991 799.132 361.307C799.132 355.727 798.098 350.818 796.032 346.581C794.068 342.344 791.226 339.037 787.506 336.66C783.785 334.283 779.496 333.094 774.639 333.094C769.782 333.094 765.493 334.283 761.773 336.66C758.052 339.037 755.159 342.344 753.092 346.581C751.128 350.818 750.146 355.727 750.146 361.307C750.146 366.991 751.128 371.952 753.092 376.189C755.159 380.426 758.052 383.733 761.773 386.11C765.493 388.487 769.782 389.676 774.639 389.676ZM861.385 402.852C853.427 402.852 846.555 401.095 840.767 397.581C834.98 393.964 830.588 389.004 827.591 382.7C824.594 376.396 823.095 369.265 823.095 361.307C823.095 353.35 824.594 346.271 827.591 340.07C830.691 333.766 835.083 328.857 840.767 325.343C846.555 321.726 853.375 319.918 861.23 319.918C866.293 319.918 871.151 321.055 875.801 323.328C880.452 325.602 884.017 328.495 886.497 332.009V321.158H901.534V401.612H886.497V390.606C884.637 394.016 881.382 396.91 876.731 399.287C872.081 401.664 866.965 402.852 861.385 402.852ZM863.09 389.676C867.947 389.676 872.236 388.487 875.956 386.11C879.677 383.733 882.519 380.426 884.482 376.189C886.549 371.952 887.583 366.991 887.583 361.307C887.583 355.727 886.549 350.818 884.482 346.581C882.519 342.344 879.677 339.037 875.956 336.66C872.236 334.283 867.947 333.094 863.09 333.094C858.233 333.094 853.944 334.283 850.223 336.66C846.503 339.037 843.609 342.344 841.542 346.581C839.476 350.818 838.442 355.727 838.442 361.307C838.442 366.888 839.476 371.849 841.542 376.189C843.609 380.426 846.503 383.733 850.223 386.11C853.944 388.487 858.233 389.676 863.09 389.676ZM919.448 321.158H934.485V401.612H919.448V321.158ZM919.448 388.746H934.485V401.612H919.448V388.746ZM919.448 321.158H929.369V334.024H919.448V321.158ZM926.889 308.292C924.099 308.292 921.67 307.31 919.603 305.346C917.64 303.279 916.658 300.851 916.658 298.06C916.658 295.27 917.64 292.841 919.603 290.775C921.67 288.708 924.099 287.674 926.889 287.674C929.679 287.674 932.108 288.708 934.175 290.775C936.242 292.841 937.275 295.27 937.275 298.06C937.275 300.851 936.242 303.279 934.175 305.346C932.108 307.31 929.679 308.292 926.889 308.292ZM998.457 334.799C996.081 334.179 993.394 333.869 990.397 333.869C986.159 333.869 982.284 335.265 978.77 338.055C975.257 340.742 972.466 344.927 970.399 350.611C968.332 356.192 967.299 363.064 967.299 371.229V401.612H952.262V321.158H967.299V336.97C969.159 332.113 972.466 328.082 977.22 324.878C981.974 321.571 986.986 319.918 992.257 319.918C994.944 319.918 997.011 320.125 998.457 320.538V334.799ZM952.262 388.746H967.299V401.612H952.262V388.746ZM952.262 321.158H958.463V334.024H952.262V321.158Z" fill="#0A0B0C"/>
</g>
<defs>
<filter id="filter0_f_454_143" x="267.5" y="422" width="665" height="665" filterUnits="userSpaceOnUse" color-interpolation-filters="sRGB">
<feFlood flood-opacity="0" result="BackgroundImageFix"/>
<feBlend mode="normal" in="SourceGraphic" in2="BackgroundImageFix" result="shape"/>
<feGaussianBlur stdDeviation="50" result="effect1_foregroundBlur_454_143"/>
</filter>
<filter id="filter1_f_454_143" x="-392.25" y="110.25" width="1984.5" height="1984.5" filterUnits="userSpaceOnUse" color-interpolation-filters="sRGB">
<feFlood flood-opacity="0" result="BackgroundImageFix"/>
<feBlend mode="normal" in="SourceGraphic" in2="BackgroundImageFix" result="shape"/>
<feGaussianBlur stdDeviation="210.375" result="effect1_foregroundBlur_454_143"/>
</filter>
<filter id="filter2_f_454_143" x="-1089.75" y="110.25" width="1984.5" height="1984.5" filterUnits="userSpaceOnUse" color-interpolation-filters="sRGB">
<feFlood flood-opacity="0" result="BackgroundImageFix"/>
<feBlend mode="normal" in="SourceGraphic" in2="BackgroundImageFix" result="shape"/>
<feGaussianBlur stdDeviation="210.375" result="effect1_foregroundBlur_454_143"/>
</filter>
<filter id="filter3_f_454_143" x="305.25" y="110.25" width="1984.5" height="1984.5" filterUnits="userSpaceOnUse" color-interpolation-filters="sRGB">
<feFlood flood-opacity="0" result="BackgroundImageFix"/>
<feBlend mode="normal" in="SourceGraphic" in2="BackgroundImageFix" result="shape"/>
<feGaussianBlur stdDeviation="210.375" result="effect1_foregroundBlur_454_143"/>
</filter>
<clipPath id="clip0_454_143">
<rect width="1200" height="675" fill="white"/>
</clipPath>
</defs>
</svg>
