<svg width="1200" height="675" viewBox="0 0 1200 675" fill="none" xmlns="http://www.w3.org/2000/svg">
<g clip-path="url(#clip0_438_712)">
<rect width="1200" height="675" fill="#0A0B0C"/>
<rect x="-200" y="-569" width="1600" height="1600" fill="black"/>
<g opacity="0.2" filter="url(#filter0_f_438_712)">
<circle cx="600" cy="529" r="310" fill="white"/>
</g>
<g filter="url(#filter1_f_438_712)">
<circle cx="600" cy="993" r="762" fill="#2CA868"/>
</g>
<g filter="url(#filter2_f_438_712)">
<circle cx="-330" cy="993" r="762" fill="#5179FB"/>
</g>
<g filter="url(#filter3_f_438_712)">
<circle cx="1530" cy="993" r="762" fill="#E07655"/>
</g>
<g filter="url(#filter4_f_438_712)">
<ellipse cx="598" cy="173" rx="762" ry="154" fill="#0A0B0C"/>
</g>
<path d="M333.012 360.005C336.352 361.015 338.401 364.446 337.383 367.783C336.37 371.109 332.795 372.762 329.467 371.756L298.255 362.329C289.615 359.725 280.926 366.209 280.926 375.273V407.559C280.926 411.332 278.067 414.547 274.293 414.547C271.1 414.547 268.688 411.856 268.688 408.663V375.273C268.688 366.209 259.975 359.725 251.335 362.329L219.222 372.032C215.9 373.036 212.332 371.405 211.298 368.094C210.253 364.744 212.306 361.28 215.666 360.265L246.979 350.809C255.79 348.156 259.412 337.619 254.101 330.079L235.03 303.007C233.021 300.156 233.485 296.217 236.333 294.206C239.178 292.197 243.051 293.078 245.055 295.926L263.793 322.563C269.178 330.177 280.436 330.177 285.797 322.563L304.201 296.43C306.233 293.545 310.168 292.675 313.019 294.755C315.795 296.781 316.218 300.663 314.238 303.473L295.489 330.079C290.202 337.619 293.8 348.156 302.611 350.809L333.012 360.005Z" fill="white"/>
<path d="M280.926 407.559V375.273C280.926 366.209 289.615 359.725 298.255 362.329L329.467 371.756C332.691 372.73 336.146 371.21 337.281 368.09L337.383 367.783C338.369 364.55 336.477 361.23 333.322 360.107L333.012 360.005L302.611 350.809C293.8 348.156 290.202 337.619 295.489 330.079L314.238 303.473C316.156 300.751 315.82 297.023 313.272 294.95L313.019 294.755C310.168 292.675 306.233 293.545 304.201 296.43L285.797 322.563C280.436 330.177 269.178 330.177 263.793 322.563L245.055 295.926C243.051 293.078 239.178 292.197 236.333 294.206L236.074 294.4C233.459 296.462 233.084 300.245 235.03 303.007L254.101 330.079C259.412 337.619 255.79 348.156 246.979 350.809L215.666 360.265L215.355 360.367C212.181 361.496 210.286 364.848 211.298 368.094C212.3 371.302 215.68 372.932 218.909 372.118L219.222 372.032L251.335 362.329C259.975 359.725 268.688 366.209 268.688 375.273V408.663L268.696 408.961C268.836 411.922 271.05 414.383 273.996 414.539L274.293 414.547C277.949 414.547 280.746 411.53 280.917 407.911L280.926 407.559ZM282.402 407.559C282.402 412.046 278.981 416.023 274.294 416.023C270.193 416.023 267.212 412.576 267.212 408.663V375.273C267.212 367.195 259.449 361.426 251.762 363.743L251.761 363.742L219.648 373.446C215.65 374.654 211.194 372.713 209.89 368.534C208.575 364.323 211.174 360.079 215.239 358.851L246.552 349.395C254.394 347.034 257.628 337.65 252.894 330.929L233.823 303.858C231.399 300.418 231.894 295.534 235.482 293C239.066 290.47 243.841 291.635 246.262 295.076L264.998 321.71C269.795 328.494 279.819 328.49 284.589 321.713L302.994 295.58C305.446 292.099 310.297 290.942 313.889 293.563C317.39 296.118 317.834 300.932 315.445 304.323L296.696 330.929C291.984 337.654 295.2 347.036 303.037 349.395L303.038 349.396L333.44 358.592C337.481 359.814 340.075 364.018 338.796 368.214C337.516 372.411 333.051 374.381 329.04 373.17L297.829 363.742C290.145 361.426 282.402 367.192 282.402 375.273V407.559Z" fill="white"/>
<path d="M421.082 394.852C413.228 394.852 406.149 393.044 399.845 389.426C393.644 385.809 388.787 380.849 385.273 374.545C381.863 368.241 380.158 361.162 380.158 353.307C380.158 345.453 381.863 338.374 385.273 332.07C388.787 325.766 393.644 320.857 399.845 317.343C406.149 313.726 413.228 311.918 421.082 311.918C428.936 311.918 435.964 313.726 442.165 317.343C448.365 320.857 453.222 325.766 456.736 332.07C460.25 338.271 462.007 345.35 462.007 353.307C462.007 361.162 460.25 368.241 456.736 374.545C453.222 380.849 448.365 385.809 442.165 389.426C435.964 393.044 428.936 394.852 421.082 394.852ZM421.082 378.42C425.319 378.42 429.04 377.387 432.243 375.32C435.55 373.15 438.082 370.153 439.839 366.329C441.699 362.505 442.63 358.165 442.63 353.307C442.63 348.45 441.699 344.161 439.839 340.441C438.082 336.617 435.55 333.672 432.243 331.605C428.936 329.435 425.216 328.35 421.082 328.35C416.845 328.35 413.073 329.435 409.766 331.605C406.459 333.672 403.927 336.617 402.17 340.441C400.413 344.265 399.535 348.554 399.535 353.307C399.535 358.268 400.413 362.66 402.17 366.484C403.927 370.204 406.407 373.15 409.611 375.32C412.918 377.387 416.742 378.42 421.082 378.42ZM473.476 313.158H492.388V326.024C494.661 321.581 497.762 318.119 501.689 315.638C505.719 313.158 510.421 311.918 515.795 311.918C522.203 311.918 527.525 313.261 531.762 315.948C536.103 318.532 539.203 322.304 541.063 327.265C543.337 322.821 546.799 319.152 551.449 316.258C556.1 313.365 561.474 311.918 567.571 311.918C573.255 311.918 578.267 313.055 582.608 315.328C586.948 317.602 590.255 320.805 592.529 324.939C594.906 329.073 596.094 333.827 596.094 339.201V393.612H577.182V344.316C577.182 339.253 575.839 335.325 573.152 332.535C570.465 329.641 566.796 328.195 562.146 328.195C556.462 328.195 552.018 330.417 548.814 334.86C545.714 339.304 544.164 345.298 544.164 352.842V393.612H525.251V344.316C525.251 339.253 523.908 335.325 521.221 332.535C518.637 329.641 515.02 328.195 510.37 328.195C506.649 328.195 503.394 329.228 500.604 331.295C497.917 333.362 495.85 336.256 494.403 339.976C493.059 343.696 492.388 347.985 492.388 352.842V393.612H473.476V313.158ZM611.199 313.158H630.111V325.869C632.798 321.529 636.415 318.119 640.962 315.638C645.509 313.158 650.522 311.918 655.999 311.918C661.786 311.918 666.85 313.106 671.191 315.483C675.634 317.86 679.096 321.219 681.577 325.559C684.057 329.9 685.297 334.964 685.297 340.751V393.612H666.23V345.247C666.23 340.389 664.783 336.462 661.889 333.465C659.099 330.365 655.327 328.815 650.573 328.815C646.336 328.815 642.667 330.003 639.567 332.38C636.57 334.654 634.245 338.012 632.591 342.456C630.938 346.797 630.111 352.067 630.111 358.268V393.612H611.199V313.158ZM700.328 313.158H719.24V393.612H700.328V313.158ZM700.328 377.645H719.24V393.612H700.328V377.645ZM700.328 313.158H713.039V329.125H700.328V313.158ZM709.629 302.307C706.425 302.307 703.635 301.17 701.258 298.896C698.984 296.519 697.847 293.729 697.847 290.525C697.847 287.322 698.984 284.531 701.258 282.154C703.635 279.778 706.425 278.589 709.629 278.589C712.832 278.589 715.623 279.778 718 282.154C720.377 284.531 721.565 287.322 721.565 290.525C721.565 293.729 720.377 296.519 718 298.896C715.623 301.17 712.832 302.307 709.629 302.307ZM736.195 313.158H751.232V324.164C753.402 320.65 756.812 317.757 761.463 315.483C766.217 313.106 771.28 311.918 776.654 311.918C784.509 311.918 791.278 313.726 796.962 317.343C802.749 320.857 807.141 325.766 810.138 332.07C813.135 338.271 814.634 345.35 814.634 353.307C814.634 361.265 813.083 368.396 809.983 374.7C806.883 381.004 802.387 385.964 796.497 389.581C790.709 393.095 783.888 394.852 776.034 394.852C771.074 394.852 766.32 393.767 761.773 391.597C757.329 389.426 753.815 386.636 751.232 383.226V422.6H736.195V313.158ZM774.639 381.676C779.496 381.676 783.785 380.487 787.506 378.11C791.226 375.733 794.068 372.426 796.032 368.189C798.098 363.952 799.132 358.991 799.132 353.307C799.132 347.727 798.098 342.818 796.032 338.581C794.068 334.344 791.226 331.037 787.506 328.66C783.785 326.283 779.496 325.094 774.639 325.094C769.782 325.094 765.493 326.283 761.773 328.66C758.052 331.037 755.159 334.344 753.092 338.581C751.128 342.818 750.146 347.727 750.146 353.307C750.146 358.991 751.128 363.952 753.092 368.189C755.159 372.426 758.052 375.733 761.773 378.11C765.493 380.487 769.782 381.676 774.639 381.676ZM861.385 394.852C853.427 394.852 846.555 393.095 840.767 389.581C834.98 385.964 830.588 381.004 827.591 374.7C824.594 368.396 823.095 361.265 823.095 353.307C823.095 345.35 824.594 338.271 827.591 332.07C830.691 325.766 835.083 320.857 840.767 317.343C846.555 313.726 853.375 311.918 861.23 311.918C866.293 311.918 871.151 313.055 875.801 315.328C880.452 317.602 884.017 320.495 886.497 324.009V313.158H901.534V393.612H886.497V382.606C884.637 386.016 881.382 388.91 876.731 391.287C872.081 393.664 866.965 394.852 861.385 394.852ZM863.09 381.676C867.947 381.676 872.236 380.487 875.956 378.11C879.677 375.733 882.519 372.426 884.482 368.189C886.549 363.952 887.583 358.991 887.583 353.307C887.583 347.727 886.549 342.818 884.482 338.581C882.519 334.344 879.677 331.037 875.956 328.66C872.236 326.283 867.947 325.094 863.09 325.094C858.233 325.094 853.944 326.283 850.223 328.66C846.503 331.037 843.609 334.344 841.542 338.581C839.476 342.818 838.442 347.727 838.442 353.307C838.442 358.888 839.476 363.849 841.542 368.189C843.609 372.426 846.503 375.733 850.223 378.11C853.944 380.487 858.233 381.676 863.09 381.676ZM919.448 313.158H934.485V393.612H919.448V313.158ZM919.448 380.746H934.485V393.612H919.448V380.746ZM919.448 313.158H929.369V326.024H919.448V313.158ZM926.889 300.292C924.099 300.292 921.67 299.31 919.603 297.346C917.64 295.279 916.658 292.851 916.658 290.06C916.658 287.27 917.64 284.841 919.603 282.775C921.67 280.708 924.099 279.674 926.889 279.674C929.679 279.674 932.108 280.708 934.175 282.775C936.242 284.841 937.275 287.27 937.275 290.06C937.275 292.851 936.242 295.279 934.175 297.346C932.108 299.31 929.679 300.292 926.889 300.292ZM998.457 326.799C996.081 326.179 993.394 325.869 990.397 325.869C986.159 325.869 982.284 327.265 978.77 330.055C975.257 332.742 972.466 336.927 970.399 342.611C968.332 348.192 967.299 355.064 967.299 363.229V393.612H952.262V313.158H967.299V328.97C969.159 324.113 972.466 320.082 977.22 316.878C981.974 313.571 986.986 311.918 992.257 311.918C994.944 311.918 997.011 312.125 998.457 312.538V326.799ZM952.262 380.746H967.299V393.612H952.262V380.746ZM952.262 313.158H958.463V326.024H952.262V313.158Z" fill="white"/>
</g>
<defs>
<filter id="filter0_f_438_712" x="190" y="119" width="820" height="820" filterUnits="userSpaceOnUse" color-interpolation-filters="sRGB">
<feFlood flood-opacity="0" result="BackgroundImageFix"/>
<feBlend mode="normal" in="SourceGraphic" in2="BackgroundImageFix" result="shape"/>
<feGaussianBlur stdDeviation="50" result="effect1_foregroundBlur_438_712"/>
</filter>
<filter id="filter1_f_438_712" x="-723" y="-330" width="2646" height="2646" filterUnits="userSpaceOnUse" color-interpolation-filters="sRGB">
<feFlood flood-opacity="0" result="BackgroundImageFix"/>
<feBlend mode="normal" in="SourceGraphic" in2="BackgroundImageFix" result="shape"/>
<feGaussianBlur stdDeviation="280.5" result="effect1_foregroundBlur_438_712"/>
</filter>
<filter id="filter2_f_438_712" x="-1653" y="-330" width="2646" height="2646" filterUnits="userSpaceOnUse" color-interpolation-filters="sRGB">
<feFlood flood-opacity="0" result="BackgroundImageFix"/>
<feBlend mode="normal" in="SourceGraphic" in2="BackgroundImageFix" result="shape"/>
<feGaussianBlur stdDeviation="280.5" result="effect1_foregroundBlur_438_712"/>
</filter>
<filter id="filter3_f_438_712" x="207" y="-330" width="2646" height="2646" filterUnits="userSpaceOnUse" color-interpolation-filters="sRGB">
<feFlood flood-opacity="0" result="BackgroundImageFix"/>
<feBlend mode="normal" in="SourceGraphic" in2="BackgroundImageFix" result="shape"/>
<feGaussianBlur stdDeviation="280.5" result="effect1_foregroundBlur_438_712"/>
</filter>
<filter id="filter4_f_438_712" x="-713.6" y="-530.6" width="2623.2" height="1407.2" filterUnits="userSpaceOnUse" color-interpolation-filters="sRGB">
<feFlood flood-opacity="0" result="BackgroundImageFix"/>
<feBlend mode="normal" in="SourceGraphic" in2="BackgroundImageFix" result="shape"/>
<feGaussianBlur stdDeviation="274.8" result="effect1_foregroundBlur_438_712"/>
</filter>
<clipPath id="clip0_438_712">
<rect width="1200" height="675" fill="white"/>
</clipPath>
</defs>
</svg>
